<svg width="232" height="142" viewBox="0 0 232 142" fill="none" xmlns="http://www.w3.org/2000/svg">
<path d="M215.08 124.435C212.502 116.224 207.537 108.298 199.994 104.097C192.45 99.8954 182.042 100.373 176.122 106.579C164.186 95.8851 151.869 85.2862 137.546 78.0293C123.223 70.7724 106.609 66.9529 90.949 70.3904C75.2894 73.8279 60.8711 85.3817 56.9562 100.946C53.4232 95.0257 46.3574 91.4927 39.5779 92.1611C32.7984 92.8295 26.5919 97.6993 24.3002 104.192C22.104 99.2271 14.7516 98.2722 10.1683 101.232C5.58501 104.192 3.19795 109.539 1.76566 114.791C0.906296 118.038 0.237823 121.38 1.0972 124.626C3.48433 133.984 15.42 136.466 25.064 137.135C30.8886 137.517 36.7133 137.899 42.5379 138.281C103.362 142.1 164.377 142.1 225.202 138.281C226.347 138.185 227.589 138.09 228.639 137.612C231.981 135.894 231.599 130.546 228.83 128.064C226.061 125.581 222.051 125.104 218.327 124.722" fill="#A7CCC3"/>
<path d="M40.7568 39.2321C30.1043 39.2321 21.4688 30.5965 21.4688 19.944C21.4688 9.29152 30.1043 0.656006 40.7568 0.656006C51.4093 0.656006 60.0449 9.29152 60.0449 19.944C60.0449 30.5965 51.4093 39.2321 40.7568 39.2321Z" fill="#A7CCC3"/>
</svg>
