<svg width="220" height="78" viewBox="0 0 220 78" fill="none" xmlns="http://www.w3.org/2000/svg">
<path d="M186.181 62.9645C183.942 55.833 179.63 48.9502 173.079 45.3016C166.528 41.6529 157.489 42.0675 152.348 47.4576C141.982 38.1701 131.285 28.9655 118.846 22.6632C106.407 16.361 91.9786 13.044 78.379 16.0293C64.7794 19.0145 52.2578 29.0484 48.8579 42.5651C45.7897 37.4238 39.6534 34.3555 33.7658 34.936C27.8781 35.5165 22.488 39.7457 20.4979 45.3845C18.5906 41.0724 12.2054 40.2432 8.22502 42.8138C4.24464 45.3845 2.1716 50.0283 0.927734 54.5891C0.181412 57.4085 -0.399124 60.3109 0.347198 63.1303C2.4203 71.2569 12.7858 73.4129 21.1612 73.9934C26.2196 74.3251 31.278 74.6568 36.3364 74.9885C89.1592 78.3055 142.148 78.3055 194.971 74.9885C195.966 74.9056 197.044 74.8227 197.956 74.408C200.858 72.9154 200.527 68.2716 198.122 66.1156C195.717 63.9596 192.234 63.5449 189 63.2132" fill="#A7CCC3"/>
<path d="M202.577 34.2827C193.325 34.2827 185.826 26.7831 185.826 17.5319C185.826 8.28076 193.325 0.78125 202.577 0.78125C211.828 0.78125 219.327 8.28076 219.327 17.5319C219.327 26.7831 211.828 34.2827 202.577 34.2827Z" fill="#A7CCC3"/>
</svg>
