<svg width="267" height="267" viewBox="0 0 267 267" fill="none" xmlns="http://www.w3.org/2000/svg">
<path d="M133.194 230.976C107.093 230.976 82.5812 220.806 64.1477 202.372C45.7142 183.939 35.5439 159.387 35.5439 133.326C35.5439 107.265 45.7142 82.7131 64.1477 64.2796C82.5812 45.8461 107.093 35.6759 133.194 35.6759C159.295 35.6759 183.807 45.8461 202.24 64.2796C220.674 82.7131 230.844 107.225 230.844 133.326C230.844 159.427 220.674 183.939 202.24 202.372C183.807 220.806 159.255 230.976 133.194 230.976ZM133.194 61.4192C114.006 61.4192 95.9296 68.888 82.3826 82.4748C68.7958 96.0616 61.327 114.098 61.327 133.286C61.327 152.474 68.7958 170.55 82.3826 184.098C95.9694 197.684 114.006 205.153 133.194 205.153C152.382 205.153 170.458 197.684 184.005 184.098C197.592 170.511 205.061 152.474 205.061 133.286C205.061 114.098 197.592 96.0218 184.005 82.4748C170.419 68.9277 152.382 61.4192 133.194 61.4192Z" fill="#FF9F0B" fill-opacity="0.91"/>
<path d="M81.0084 204.465L79.9119 205.874L74.4437 201.617L72.2893 204.384L81.3698 211.453L90.4002 199.854L84.1201 194.965C81.4523 192.888 78.5697 193.172 77.0345 195.144C75.7315 196.818 74.8609 199.679 78.7052 202.672L81.0084 204.465ZM84.6077 199.842L82.8919 202.046L80.8703 200.472C80.0418 199.827 79.7844 198.961 80.3262 198.266C80.9067 197.52 81.7742 197.636 82.6027 198.281L84.6077 199.842Z" fill="white"/>
<path d="M67.259 194.691L64.5421 196.942L67.4625 200.468L78.783 191.09L74.6302 186.077C71.9777 182.875 68.686 182.193 66.0661 184.363C63.3977 186.573 63.3741 190.002 66.04 193.22L67.259 194.691ZM69.2315 179.559L66.3111 176.034L54.9906 185.411L57.9109 188.937L69.2315 179.559ZM73.0648 189.882L70.0568 192.374L68.9181 190.999C67.9938 189.883 68.0133 188.722 68.9837 187.918C69.8732 187.181 71.0018 187.392 71.9262 188.508L73.0648 189.882Z" fill="white"/>
<path d="M53.7891 183.018L57.1553 181.252L55.1267 177.384L64.779 172.322L62.6432 168.249L52.9909 173.311L50.9525 169.424L47.5863 171.189L53.7891 183.018Z" fill="white"/>
<path d="M48.3055 162.784L44.9467 163.864L46.3474 168.222L60.3424 163.724L58.3506 157.527C57.0783 153.568 54.2759 151.711 51.037 152.752C47.7382 153.813 46.4421 156.986 47.7208 160.965L48.3055 162.784ZM55.4829 160.478L51.7643 161.673L51.2181 159.973C50.7748 158.594 51.2246 157.523 52.4242 157.137C53.5238 156.784 54.4934 157.399 54.9368 158.778L55.4829 160.478Z" fill="white"/>
<path d="M39.7401 129.131L40.0241 141.287L47.335 141.326C50.1712 141.344 50.9392 141.851 51.0214 142.668L51.0596 144.306L57.3159 144.159L57.2085 139.562L54.6892 139.621L54.4856 130.908L57.0049 130.849L56.898 126.272L50.6417 126.419L50.6991 128.875L39.7401 129.131ZM50.8924 137.147C50.0467 136.914 48.9931 136.771 47.6699 136.781L43.6571 136.748L43.584 133.62L50.806 133.452L50.8924 137.147Z" fill="white"/>
<path d="M56.2386 118.674C57.1155 114.052 54.5763 110.086 50.2229 109.26C45.8902 108.438 42.0994 111.181 41.2225 115.803C40.3456 120.425 42.8887 124.37 47.242 125.196C51.5747 126.018 55.3656 123.274 56.2386 118.674ZM52.405 117.925C52.0331 119.885 50.2646 120.981 48.0983 120.57C45.9113 120.155 44.6675 118.487 45.0394 116.527C45.4113 114.567 47.2003 113.475 49.3873 113.89C51.5536 114.301 52.7768 115.965 52.405 117.925Z" fill="white"/>
<path d="M50.844 102.133L49.1918 101.458L51.8146 95.0431L48.5685 93.7158L44.2131 104.368L57.8196 109.931L60.8318 102.564C62.1114 99.4348 61.0596 96.7359 58.7465 95.7901C56.7833 94.9874 53.7927 94.9217 51.9488 99.4313L50.844 102.133ZM56.2672 104.351L53.682 103.294L54.6516 100.922C55.049 99.9502 55.8131 99.4686 56.6295 99.8024C57.5042 100.16 57.6263 101.027 57.2289 101.999L56.2672 104.351Z" fill="white"/>
<path d="M54.9542 82.472L51.4257 87.9428L63.7792 95.9103L66.2605 92.0631L63.2427 90.1167L64.2785 88.5108C66.5435 84.9989 66.1662 81.6319 63.2543 79.7538C60.3954 77.9099 57.2192 78.96 54.9542 82.472ZM60.172 88.1362L56.9777 86.0761L57.9566 84.5583C58.7306 83.3583 59.7671 82.9523 60.7907 83.6124C61.8495 84.2954 61.9248 85.4185 61.1509 86.6185L60.172 88.1362Z" fill="white"/>
<path d="M66.4132 73.0584L63.9249 70.5573L60.6795 73.7861L71.0472 84.2073L75.6623 79.6159C78.61 76.6833 78.9898 73.3432 76.5904 70.9314C74.1466 68.475 70.7305 68.7632 67.7679 71.7106L66.4132 73.0584ZM81.6619 73.6471L84.9073 70.4183L74.5397 59.9971L71.2942 63.2259L81.6619 73.6471ZM71.7303 78.403L68.9755 75.6339L70.2409 74.375C71.2681 73.353 72.4266 73.2669 73.3153 74.1601C74.1299 74.979 74.023 76.1221 72.9957 77.144L71.7303 78.403Z" fill="white"/>
<path d="M88.2204 59.2173L81.1709 55.6613L77.5274 57.8744L85.1588 70.4383L88.8921 68.1707L84.9892 61.7452L90.7243 64.6745L91.9089 63.9549L91.9282 57.5549L95.8202 63.9625L99.5535 61.6949L91.922 49.131L88.2965 51.3332L88.2204 59.2173Z" fill="white"/>
<path d="M111.281 45.5854L103.656 47.7932L104.45 50.5366L112.075 48.3287L111.281 45.5854ZM112.618 50.2047L104.994 52.4125L105.788 55.1558L113.413 52.948L112.618 50.2047Z" fill="white"/>
<path d="M136.658 39.6471L122.703 40.1776L123.262 54.867L127.816 54.6939L127.399 43.7398L132.205 43.5572L132.621 54.5112L137.217 54.3365L136.658 39.6471Z" fill="white"/>
<path d="M146.291 55.8747C150.931 56.6477 154.839 54.0202 155.567 49.6495C156.292 45.2994 153.464 41.571 148.824 40.798C144.184 40.025 140.297 42.6559 139.569 47.0267C138.844 51.3767 141.672 55.1051 146.291 55.8747ZM146.954 52.0253C144.986 51.6974 143.85 49.954 144.212 47.779C144.578 45.5833 146.218 44.3023 148.186 44.6302C150.154 44.958 151.286 46.7221 150.92 48.9179C150.558 51.0929 148.922 52.3531 146.954 52.0253Z" fill="white"/>
<path d="M165.733 52.7536L164.37 44.9764L160.418 43.3781L154.907 57.0058L158.956 58.6435L161.775 51.6739L162.854 58.0227L164.139 58.5423L169.282 54.7325L166.471 61.6826L170.52 63.3203L176.032 49.6926L172.099 48.1022L165.733 52.7536Z" fill="white"/>
<path d="M177.906 68.6334C181.778 71.3038 186.432 70.5846 188.947 66.9368C191.451 63.3064 190.474 58.73 186.602 56.0596C182.729 53.3891 178.093 54.1202 175.577 57.768C173.074 61.3985 174.05 65.9749 177.906 68.6334ZM180.14 65.4297C178.498 64.2972 178.21 62.2364 179.462 60.4211C180.725 58.5886 182.754 58.1253 184.396 59.2579C186.039 60.3904 186.315 62.4685 185.051 64.301C183.799 66.1162 181.783 66.5622 180.14 65.4297Z" fill="white"/>
<path d="M185.386 73.7804L188.585 76.9961L196.326 69.2944L201.288 74.2817L203.968 71.6157L195.807 63.4127L185.386 73.7804Z" fill="white"/>
<path d="M203.279 95.7622L211.82 82.2305L209.229 78.4565L193.532 81.5663L196.219 85.4788L198.541 84.9286L201.917 89.8452L200.557 91.7977L203.279 95.7622ZM206.664 82.9943L203.819 87.0873L201.798 84.1443L206.664 82.9943Z" fill="white"/>
<path d="M215.928 88.6592L212.459 90.2108L214.242 94.1983L204.292 98.6475L206.17 102.846L216.119 98.3967L217.911 102.403L221.381 100.852L215.928 88.6592Z" fill="white"/>
<path d="M220.268 109.511L223.69 108.654L222.577 104.213L208.318 107.786L209.9 114.101C210.911 118.134 213.586 120.17 216.886 119.343C220.247 118.501 221.748 115.419 220.732 111.365L220.268 109.511ZM212.955 111.344L216.744 110.394L217.177 112.126C217.53 113.531 217.011 114.571 215.788 114.877C214.668 115.157 213.741 114.481 213.389 113.075L212.955 111.344Z" fill="white"/>
<path d="M223.989 135.828L223.92 127.89L221.065 127.915L221.134 135.853L223.989 135.828ZM219.181 135.87L219.112 127.932L216.256 127.957L216.325 135.895L219.181 135.87Z" fill="white"/>
<path d="M222.782 162.023L226.102 148.459L211.824 144.964L210.74 149.39L221.388 151.996L220.244 156.668L209.597 154.061L208.503 158.528L222.782 162.023Z" fill="white"/>
<path d="M215.257 179.327L216.887 175.847L212.766 167.216L219.461 170.351L221.411 166.186L208.099 159.952L206.522 163.318L210.752 172.162L203.886 168.947L201.945 173.093L215.257 179.327Z" fill="white"/>
<path d="M213.497 182.33L210.41 180.113L207.861 183.66L199.01 177.301L196.327 181.036L205.178 187.395L202.617 190.96L205.704 193.177L213.497 182.33Z" fill="white"/>
<path d="M197.967 196.257L200.436 198.777L203.706 195.573L193.418 185.073L188.768 189.629C185.798 192.539 185.392 195.876 187.773 198.306C190.198 200.781 193.617 200.519 196.602 197.594L197.967 196.257ZM192.69 190.872L195.424 193.662L194.149 194.911C193.114 195.925 191.955 196.003 191.073 195.103C190.265 194.278 190.38 193.135 191.415 192.121L192.69 190.872Z" fill="white"/>
<path d="M165.022 206.047L173.005 210.387L172.272 218.836L176.747 216.383L176.717 210.388L178.191 209.581L180.724 214.203L184.739 212.002L177.673 199.112L173.658 201.312L176.202 205.953L174.839 206.7L169.404 203.644L165.022 206.047Z" fill="white"/>
<path d="M157.302 208.268C152.813 209.674 150.514 213.784 151.839 218.012C153.157 222.22 157.365 224.269 161.853 222.862C166.342 221.456 168.621 217.352 167.296 213.124C165.978 208.916 161.77 206.867 157.302 208.268ZM158.45 212.001C160.353 211.405 162.154 212.447 162.814 214.551C163.479 216.675 162.595 218.559 160.692 219.155C158.788 219.752 156.981 218.69 156.315 216.565C155.655 214.461 156.546 212.598 158.45 212.001Z" fill="white"/>
<path d="M130.788 220.152C131.056 223.417 134.108 225.695 138.704 225.466L138.845 227.182L143.261 226.82L143.12 225.104C147.692 224.581 150.331 221.815 150.061 218.529C149.793 215.264 146.72 212.988 142.145 213.216L142.005 211.499L137.588 211.862L137.729 213.578C133.178 214.099 130.519 216.866 130.788 220.152ZM145.291 218.942C145.396 220.218 144.583 221.36 142.839 221.671L142.427 216.648C144.199 216.671 145.186 217.665 145.291 218.942ZM138.421 222.013C136.628 221.991 135.663 221.017 135.557 219.719C135.452 218.442 136.245 217.324 138.012 217.031L138.421 222.013Z" fill="white"/>
<path d="M125.072 217.721L118.154 216.858L117.745 220.129L124.664 220.993L124.419 222.951L116.48 221.961L116.033 225.545L128.411 227.089L130.231 212.502L117.665 210.935L117.218 214.519L125.345 215.533L125.072 217.721Z" fill="white"/>
<path d="M98.2702 216.888L105.685 219.723L106.705 217.055L99.2902 214.22L98.2702 216.888ZM99.9878 212.396L107.402 215.231L108.422 212.564L101.008 209.728L99.9878 212.396Z" fill="white"/>
</svg>
