<svg width="110" height="117" viewBox="0 0 110 117" fill="none" xmlns="http://www.w3.org/2000/svg">
<path d="M97.1906 16.7077C96.7536 16.2707 96.2768 15.794 95.8001 15.357C95.4823 15.0789 95.1247 14.761 94.7672 14.483C93.8535 13.7281 92.8603 13.013 91.7876 12.3377C89.2054 10.6691 86.2258 9.15948 82.9284 7.8882C82.412 7.68956 82.0544 7.25256 81.9352 6.69638L81.8161 6.10047C81.6969 5.58401 81.3393 5.14701 80.8229 4.90864C73.6719 2.00854 64.9716 0.300262 55.5562 0.300262C46.1408 0.300262 37.4405 2.00854 30.2896 4.90864C29.7731 5.10728 29.4156 5.54428 29.2964 6.10047L29.1772 6.69638C29.058 7.21283 28.7005 7.68956 28.184 7.8882C24.8867 9.15948 21.9071 10.6691 19.3248 12.3377C18.2522 13.013 17.259 13.7281 16.3453 14.483C15.9877 14.761 15.6302 15.0789 15.3124 15.357C14.8356 15.794 14.3589 16.231 13.9219 16.7077C13.5644 17.105 13.4054 17.6214 13.4849 18.1379L14.4781 22.9846L16.0275 30.6123C16.0672 30.8904 16.2261 31.1685 16.4247 31.3671C16.5042 31.4466 16.5439 31.526 16.6234 31.5657C17.0206 32.0027 17.4576 32.4397 17.8946 32.8767C18.57 33.5124 19.3248 34.148 20.0796 34.7439C20.3975 34.9823 20.5961 35.3001 20.6756 35.6974L22.0263 42.2921V42.3716L22.9798 47.0594L23.5359 49.8006L26.2771 63.3874L27.0717 67.2807L28.0649 72.2069L28.6608 75.0673L35.3747 108.438L35.9706 111.458C36.0898 111.974 36.4076 112.371 36.8446 112.61C37.7981 113.086 38.831 113.484 39.8639 113.881C44.5915 115.629 49.9149 116.662 55.5562 116.662C61.1975 116.662 66.5607 115.669 71.2486 113.881C72.2815 113.484 73.2747 113.086 74.2678 112.61C74.7446 112.411 75.0624 111.974 75.1419 111.458L75.7378 108.438L82.4517 75.0673L83.0476 72.2069L84.0408 67.2807L84.8353 63.3874L87.5765 49.8006L88.1327 47.0594L89.0862 42.3716V42.2921L90.4369 35.6974C90.5164 35.3398 90.715 34.9823 91.0328 34.7439C91.8274 34.148 92.5425 33.5124 93.2178 32.8767C93.6548 32.4397 94.0918 32.0425 94.4891 31.5657C94.5686 31.4863 94.6083 31.4068 94.6877 31.3671C94.8864 31.1685 95.0056 30.8904 95.085 30.6123L96.6344 22.9846L97.6276 18.1379C97.6673 18.0187 97.6673 17.9392 97.6673 17.8201C97.6276 17.383 97.4687 16.9858 97.1906 16.7077ZM23.0592 30.6917C22.9003 30.0164 23.2578 29.3013 23.8538 28.9437C24.1716 28.7848 24.4497 28.6259 24.7675 28.467C32.8719 24.3353 43.6777 21.8325 55.5165 21.8325C67.3553 21.8325 78.1611 24.3353 86.2655 28.467C86.5834 28.6259 86.9012 28.7848 87.1793 28.9437C87.8149 29.2615 88.1327 29.9766 87.9738 30.6917L87.3382 33.8699L86.8614 36.2536C83.8024 38.5578 80.1872 40.4647 74.0295 41.299C65.7265 42.4113 61.3167 40.3455 56.6289 38.1605C51.7821 35.896 46.7367 33.5521 37.5597 34.7837C31.6403 35.5782 27.7868 37.3262 24.7278 39.4318L24.4099 37.7632L23.6154 33.9097L23.0592 30.6917ZM84.3586 48.8472L83.7627 51.9062L81.101 65.0957L80.3462 68.7903L80.1475 69.7835L79.5516 72.7631L72.1623 109.352C72.0431 109.908 71.6458 110.345 71.1294 110.544C66.4415 112.292 61.1578 113.285 55.5165 113.285C49.9149 113.285 44.5915 112.292 39.9036 110.544C39.3872 110.345 38.9899 109.908 38.8707 109.352L31.4814 72.7631L30.8855 69.7835L30.6869 68.7903L29.9321 65.0957L27.2703 51.9062L26.6744 48.8472L25.8401 44.7155L25.4031 42.5702C28.4224 40.3455 32.0376 38.4783 37.9967 37.6838C46.2997 36.5714 50.7095 38.6372 55.3973 40.8222C60.2441 43.0867 65.2895 45.4306 74.4665 44.1991C79.5913 43.5237 83.1668 42.0935 86.0272 40.3852L85.1532 44.6758L84.3586 48.8472ZM92.2644 26.282C92.026 27.3944 90.7547 27.9505 89.8013 27.3149C89.4835 27.0765 89.1259 26.8779 88.7684 26.6395C87.7752 26.0039 86.7423 25.408 85.6696 24.8518C77.7241 20.7202 67.1566 18.5749 55.5562 18.5749C43.9558 18.5749 33.3883 20.6804 25.4429 24.8518C24.3702 25.408 23.3373 26.0039 22.3441 26.6395C21.9866 26.8779 21.6687 27.0765 21.3112 27.3149C20.3577 27.9505 19.0865 27.4341 18.8481 26.282L17.3782 18.0981C18.2522 17.2241 19.2454 16.7474 20.2783 15.9529C22.503 14.2446 25.125 12.8541 28.0251 11.5431C35.5733 8.04711 45.1079 6.17992 55.5165 6.17992C65.9251 6.17992 75.4597 8.04711 83.0079 11.5431C85.908 12.8939 88.53 14.2446 90.7547 15.9529C91.7876 16.7474 92.7808 17.2241 93.6548 18.0981L92.2644 26.282Z" fill="#FF9F0B" fill-opacity="0.91"/>
<path d="M49.397 75.8618L46.1394 83.7675L52.178 77.729V86.6676L55.5945 78.3646L58.8919 86.2704V77.729L65.2483 84.0456L61.7523 75.7823L69.6977 79.04L63.6195 72.9617H72.5979L64.2948 69.5849L72.2006 66.2875H63.6195L69.9758 59.9311L61.7125 63.4271L64.9305 55.4816L58.8919 61.5202V52.5815L55.5151 60.8845L52.178 52.9788V61.5202L45.8613 55.2035L49.3176 63.4668L41.4118 60.2092L47.4504 66.2875H38.5117L46.775 69.6643L38.909 72.9617H47.4504L41.1337 79.3181L49.397 75.8618Z" fill="#FF9F0B" fill-opacity="0.91"/>
<path d="M87.3364 103.473C87.0186 103.473 86.7008 103.155 86.383 102.559C86.0652 101.963 85.9062 101.288 85.9062 100.533C85.9062 99.3808 86.1446 98.2685 86.7008 97.1958C87.2173 96.1232 87.8529 95.1697 88.6474 94.4149C89.442 93.6601 90.2763 93.0642 91.19 92.5874C92.1037 92.1504 92.9777 91.9121 93.7723 91.9121C94.2887 91.9121 94.7257 91.9915 95.123 92.1107C95.2422 92.1504 95.2819 92.2299 95.2819 92.3094C95.2819 92.5874 95.1627 92.945 94.9244 93.3423C94.686 93.7395 94.3682 94.0971 93.9709 94.4149C93.7325 94.5738 93.2955 94.8519 92.6599 95.2095C92.0243 95.567 91.627 95.8054 91.4284 95.9643C90.316 96.7191 89.4023 97.7917 88.6474 99.2617C87.8926 100.732 87.4953 102.043 87.4953 103.195C87.4556 103.393 87.4159 103.473 87.3364 103.473ZM89.3625 104.267C88.8858 104.267 88.568 104.188 88.4091 104.029C88.3296 103.989 88.2899 103.949 88.2899 103.87L88.2502 103.751L88.2899 103.632C88.4091 102.917 88.6077 102.241 88.9255 101.645C89.2036 101.049 89.5612 100.533 89.9982 100.016C90.3557 99.5795 91.19 98.7849 92.4613 97.6328C93.7723 96.4807 94.5271 95.7656 94.7257 95.4875C95.3614 94.7327 95.8778 93.9382 96.1559 93.0642C96.1956 92.945 96.2354 92.8655 96.3148 92.7861C96.3546 92.7861 96.3943 92.8258 96.5135 92.945C96.9505 93.382 97.2286 93.7793 97.3875 94.1368C97.5464 94.4944 97.6258 94.8916 97.6258 95.3684C97.6258 96.2424 97.3477 97.2356 96.7916 98.2685C96.1956 99.4206 95.4806 100.453 94.6463 101.327C93.7723 102.241 92.8983 102.956 92.0243 103.473C91.627 103.671 91.19 103.87 90.6735 103.989C90.1968 104.188 89.7598 104.267 89.3625 104.267Z" fill="#FF9F0B" fill-opacity="0.91"/>
<path d="M1.88248 56.5938C1.88248 56.1965 2.24003 55.839 2.95512 55.4814C3.67021 55.1239 4.42504 54.9253 5.29904 54.9253C6.64977 54.9253 7.92105 55.2431 9.19233 55.839C10.4636 56.4349 11.5362 57.1897 12.4102 58.1035C13.2842 59.0172 13.9993 59.9706 14.5158 61.0433C15.0323 62.1159 15.3103 63.1091 15.3103 64.0626C15.3103 64.6585 15.2309 65.1749 15.072 65.6517C15.0323 65.7708 14.9528 65.8503 14.8336 65.8503C14.5158 65.8503 14.1185 65.6914 13.6418 65.4133C13.1651 65.1352 12.7678 64.7379 12.4102 64.3009C12.2116 64.0228 11.8938 63.5064 11.4965 62.7913C11.0992 62.0762 10.7814 61.5995 10.6622 61.3611C9.82797 60.0898 8.51696 59.0172 6.80868 58.1432C5.1004 57.2692 3.59076 56.8322 2.24003 56.8322C1.96193 56.7527 1.88248 56.6733 1.88248 56.5938ZM0.96875 58.898C0.96875 58.3418 1.0482 57.9843 1.24684 57.7856C1.28657 57.7062 1.36602 57.6665 1.44548 57.6665L1.56466 57.6267L1.72357 57.6665C2.55785 57.7856 3.35239 58.024 4.02776 58.3815C4.70313 58.6994 5.33877 59.0966 5.93468 59.6131C6.45113 60.0104 7.36487 61.0036 8.67587 62.4735C10.0266 64.0228 10.8609 64.8968 11.139 65.1352C12.013 65.89 12.9664 66.4462 13.9596 66.8038C14.0788 66.8435 14.198 66.8832 14.2774 66.9627C14.2774 67.0024 14.198 67.0819 14.0788 67.201C13.5623 67.7175 13.1253 68.0353 12.6883 68.2339C12.2911 68.4326 11.8143 68.512 11.2582 68.512C10.2252 68.512 9.11287 68.1942 7.88132 67.5586C6.53059 66.8435 5.37849 66.0489 4.34558 65.0557C3.31267 64.0626 2.47839 63.0297 1.84275 62.0365C1.60439 61.5995 1.40575 61.083 1.24684 60.4871C1.0482 59.8912 0.96875 59.3747 0.96875 58.898Z" fill="#FF9F0B" fill-opacity="0.91"/>
<path d="M90.5547 62.8712C90.5547 62.8712 94.8453 62.8712 97.5864 65.5726C100.288 68.2741 99.8509 73.8757 99.8509 73.8757H99.8906C99.8906 73.8757 99.4536 68.3138 102.155 65.5726C104.857 62.8712 109.187 62.8712 109.187 62.8712C109.187 62.8712 104.896 62.8712 102.155 60.1697C99.4536 57.4682 99.8906 51.8667 99.8906 51.8667H99.8509C99.8509 51.8667 100.288 57.4285 97.5864 60.1697C94.885 62.8712 90.5547 62.8712 90.5547 62.8712Z" fill="#FF9F0B" fill-opacity="0.91"/>
<path d="M11.1797 98.1093C11.1797 98.1093 14.7949 98.1093 17.0593 100.374C19.3238 102.638 18.9663 107.326 18.9663 107.326H19.006C19.006 107.326 18.6484 102.638 20.9129 100.374C23.1774 98.1093 26.7926 98.1093 26.7926 98.1093C26.7926 98.1093 23.1774 98.1093 20.9129 95.8448C18.6484 93.5804 19.006 88.8925 19.006 88.8925H18.9663C18.9663 88.8925 19.3238 93.5804 17.0593 95.8448C14.7949 98.1093 11.1797 98.1093 11.1797 98.1093Z" fill="#FF9F0B" fill-opacity="0.91"/>
</svg>
