<svg width="692" height="644" viewBox="0 0 692 644" fill="none" xmlns="http://www.w3.org/2000/svg">
<path d="M2.98142 15.9473V47.4473H9.59642V22.4723H23.6814V47.4473H30.2964V15.9023L2.98142 15.9473Z" fill="white"/>
<path d="M35.7439 15.9473V47.4473H42.8539L57.2089 25.8923V47.4473H63.7789V15.9473H56.6689L42.3589 37.5023V15.9473H35.7439Z" fill="white"/>
<path d="M68.0166 15.9473V22.4723H77.1066V47.4473H83.6766V22.4723H92.7666V15.9473H68.0166Z" fill="white"/>
<path d="M106.585 47.4473C113.47 47.4473 117.925 44.3873 117.925 38.0873C117.925 31.7873 113.47 28.5923 106.585 28.5923H102.625V15.9473H96.01V47.4473H106.585ZM102.625 40.9673V35.0723H106.495C109.87 35.0723 111.355 36.1523 111.355 38.0873C111.355 40.1123 109.87 40.9673 106.495 40.9673H102.625Z" fill="white"/>
<path d="M136.463 47.4023H143.078V37.0073L146.183 33.6773L156.623 47.4473H163.913L150.233 29.4023L162.878 15.9923L155.408 15.9473L143.078 29.1323V15.9473H136.463V47.4023Z" fill="white"/>
<path d="M165.816 31.9223C165.816 40.7423 172.521 47.8973 181.341 47.8973C190.161 47.8973 197.001 40.7423 197.001 31.9223C197.001 22.8323 190.161 15.4973 181.341 15.4973C172.521 15.4973 165.816 22.8323 165.816 31.9223ZM181.341 22.0223C186.516 22.0223 190.431 26.3873 190.431 31.9223C190.431 37.1873 186.516 41.3723 181.341 41.3723C176.166 41.3723 172.386 37.1873 172.386 31.9223C172.386 26.3873 176.166 22.0223 181.341 22.0223Z" fill="white"/>
<path d="M201.07 31.7423C201.07 38.9423 206.695 44.1173 214.165 45.2423V49.2473H220.375V45.2423C227.89 44.1623 233.47 38.9873 233.47 31.7423C233.47 24.4973 227.89 19.2773 220.375 18.1973V14.1473H214.165V18.2423C206.695 19.3673 201.07 24.5423 201.07 31.7423ZM207.19 31.6973C207.19 28.2323 210.475 25.7123 214.165 24.9023V38.5373C210.475 37.7273 207.19 35.1623 207.19 31.6973ZM220.375 24.9473C223.84 25.7573 226.945 28.2773 226.945 31.7423C226.945 35.1623 223.84 37.6823 220.375 38.5373V24.9473Z" fill="white"/>
<path d="M237.466 15.9473V47.4473H260.506V40.9223H244.081V34.9373H258.256V28.3673H244.081V22.4723H260.506V15.9473H237.466Z" fill="white"/>
<path d="M277.532 39.4005L274.498 44.9731L292.125 54.5698L295.159 48.9971L277.532 39.4005ZM282.675 29.9546L279.641 35.5273L297.268 45.1239L300.302 39.5513L282.675 29.9546Z" fill="white"/>
<path d="M323.903 43.9996L301.514 66.1586L310.979 75.7215C314.62 79.3996 319.744 79.1396 323.774 75.1509C327.804 71.1623 328.149 65.882 324.541 62.2359L319.761 57.4064L323.918 53.2912L333.447 62.9181L338.116 58.36L323.903 43.9996ZM310.805 66.27L315.091 62.0282L319.333 66.3139C320.536 67.5292 320.592 69.0569 319.28 70.3548C317.937 71.6843 316.25 71.7711 315.047 70.5557L310.805 66.27Z" fill="white"/>
<path d="M322.283 90.861C324.464 97.3914 328.778 100.648 334.754 98.6519C340.729 96.6562 342.348 91.4186 340.167 84.8882L338.913 81.1321L350.907 77.1265L348.811 70.8521L318.933 80.8306L322.283 90.861ZM329.639 112.885L359.517 102.907L357.435 96.675L327.558 106.654L329.639 112.885ZM327.175 85.0522L332.767 83.1848L333.992 86.8555C335.062 90.0567 334.508 91.8073 332.672 92.4203C330.752 93.0618 329.47 91.9241 328.401 88.7229L327.175 85.0522Z" fill="white"/>
<path d="M358.804 118.843L352.467 117.286L350.298 126.113L326.045 120.155L324.477 126.535L348.731 132.494L346.562 141.321L352.899 142.878L358.804 118.843Z" fill="white"/>
<path d="M316.424 143.894C312.843 149.774 313.139 155.171 318.52 158.447C323.901 161.724 328.947 159.581 332.528 153.7L334.587 150.318L345.387 156.895L348.828 151.245L321.924 134.862L316.424 143.894ZM324.018 143.882L329.053 146.948L327.04 150.253C325.284 153.136 323.59 153.842 321.937 152.836C320.207 151.783 320.25 150.07 322.005 147.187L324.018 143.882Z" fill="white"/>
<path d="M305.256 166.068L300.226 153.637L294.094 156.118L296.812 162.834L278.75 170.143L276.032 163.427L269.942 165.891L274.972 178.322L278.726 176.803L288.229 200.288L305.999 193.098L300.526 174.293C299.188 169.786 301.252 167.688 302.962 166.996L305.256 166.068ZM294.119 170.575C293.773 171.88 293.863 173.542 294.432 175.788L297.962 189.311L291.872 191.775L284.816 174.339L294.119 170.575Z" fill="white"/>
<path d="M274.905 187.466C272.831 178.894 264.632 173.516 256.059 175.59C247.486 177.664 242.52 186.227 244.594 194.799C246.732 203.634 255.105 209.155 263.677 207.081C272.25 205.008 277.042 196.302 274.905 187.466ZM262.143 200.739C257.113 201.956 252.282 198.634 250.98 193.254C249.742 188.137 252.563 183.149 257.593 181.932C262.623 180.715 267.281 183.894 268.519 189.011C269.821 194.391 267.173 199.523 262.143 200.739Z" fill="white"/>
<path d="M243.278 211.298L236.227 180.597L223.113 183.609C218.07 184.767 215.593 189.261 216.862 194.787C218.131 200.313 222.438 203.387 227.438 202.238L234.061 200.718L235.37 206.419L222.169 209.451L223.585 215.82L243.278 211.298ZM231.24 188.437L232.59 194.314L226.713 195.664C225.046 196.047 223.718 195.29 223.305 193.492C222.882 191.65 223.697 190.17 225.363 189.787L231.24 188.437Z" fill="white"/>
<path d="M203.029 188.55L206.016 199.396L201.634 200.603C194.996 202.43 191.573 206.78 193.365 213.288C195.157 219.796 200.372 221.954 207.01 220.126L217.769 217.163L209.407 186.794L203.029 188.55ZM205.364 213.811C202.11 214.707 200.284 213.67 199.747 211.717C199.09 209.331 200.199 207.766 203.453 206.87L207.748 205.687L209.659 212.629L205.364 213.811Z" fill="white"/>
<path d="M172.218 198.089C165.82 200.635 162.813 205.125 165.142 210.979C167.471 216.833 172.792 218.154 179.189 215.608L182.868 214.144L187.544 225.893L193.69 223.447L182.043 194.179L172.218 198.089ZM150.643 206.675L162.29 235.943L168.394 233.513L156.747 204.246L150.643 206.675ZM178.293 202.646L180.472 208.123L176.877 209.554C173.741 210.802 171.962 210.348 171.246 208.55C170.498 206.668 171.561 205.325 174.697 204.077L178.293 202.646Z" fill="white"/>
<path d="M160.333 235.794L141.301 210.694L136.03 214.691L147.014 229.177L129.002 220.02L123.552 224.152L127.508 243.968L116.524 229.481L111.253 233.478L130.285 258.578L135.843 254.364L130.518 227.68L154.775 240.008L160.333 235.794Z" fill="white"/>
<path d="M106.232 257.518L100.722 254.372L90.7703 271.801L96.2804 274.948L106.232 257.518ZM115.572 262.851L110.061 259.705L100.11 277.134L105.62 280.28L115.572 262.851Z" fill="white"/>
<path d="M110.148 295.218L79.0489 290.211L77.9973 296.741L102.655 300.712L100.416 314.617L75.7584 310.647L74.7068 317.178L105.851 322.193L110.148 295.218Z" fill="white"/>
<path d="M89.6173 323.172C80.878 324.362 74.6933 331.971 75.8836 340.711C77.0739 349.45 85.0865 355.262 93.8259 354.072C102.833 352.845 109.178 345.078 107.987 336.338C106.797 327.599 98.6242 321.945 89.6173 323.172ZM101.522 337.219C102.22 342.346 98.4236 346.815 92.9392 347.562C87.7224 348.272 83.0473 344.958 82.3489 339.83C81.6505 334.703 85.2871 330.392 90.504 329.682C95.9883 328.935 100.824 332.091 101.522 337.219Z" fill="white"/>
<path d="M108.503 350.729L80.5757 365.3L83.6357 371.165L99.7537 362.755L87.7156 378.984L90.8796 385.049L111.078 384.459L94.9595 392.868L98.0195 398.733L125.947 384.162L122.72 377.978L95.5214 378.769L111.729 356.913L108.503 350.729Z" fill="white"/>
<path d="M115.345 395.099C109.16 401.386 108.922 411.189 115.21 417.374C121.497 423.56 131.391 423.256 137.576 416.968C143.951 410.488 144.219 400.463 137.931 394.277C131.644 388.092 121.72 388.619 115.345 395.099ZM133.356 398.929C137.045 402.558 136.774 408.415 132.893 412.361C129.201 416.114 123.475 416.352 119.786 412.723C116.096 409.094 116.337 403.459 120.029 399.706C123.911 395.76 129.666 395.3 133.356 398.929Z" fill="white"/>
<path d="M149.788 405.795L132.404 432.064L137.92 435.715L151.703 414.887L162.248 421.866L165.849 416.424L149.788 405.795Z" fill="white"/>
<path d="M159.432 448.426L164.293 443.201L175.736 447.794L175.635 454.93L181.9 457.444L182.315 423.668L176.218 421.221L153.168 445.912L159.432 448.426ZM175.931 430.755L175.786 440.783L169.104 438.101L175.931 430.755Z" fill="white"/>
<path d="M191.23 427.274L190.067 433.695L199.011 435.315L194.561 459.89L201.026 461.061L205.476 436.485L214.421 438.105L215.583 431.685L191.23 427.274Z" fill="white"/>
<path d="M226.229 463.227C233.113 463.277 237.59 460.249 237.636 453.949C237.681 447.649 233.25 444.422 226.365 444.373L222.405 444.344L222.496 431.699L215.881 431.652L215.654 463.151L226.229 463.227ZM222.315 456.719L222.358 450.824L226.228 450.852C229.603 450.876 231.08 451.967 231.066 453.902C231.051 455.927 229.56 456.771 226.185 456.747L222.315 456.719Z" fill="white"/>
<path d="M256.025 450.752L257.278 456.972L276.953 453.006L275.699 446.786L256.025 450.752ZM253.9 440.209L255.153 446.429L274.828 442.463L273.574 436.243L253.9 440.209Z" fill="white"/>
<path d="M285.279 422.639L296.593 452.037L302.767 449.661L293.796 426.353L306.941 421.294L315.912 444.602L322.085 442.226L310.755 412.786L285.279 422.639Z" fill="white"/>
<path d="M314.993 411.109L329.716 438.956L336.001 435.633L338.618 409.868L348.692 428.924L354.5 425.854L339.778 398.006L333.492 401.329L330.916 427.073L320.841 408.017L314.993 411.109Z" fill="white"/>
<path d="M340.697 397.215L344.483 402.529L351.886 397.255L366.377 417.596L371.728 413.784L357.237 393.443L364.641 388.169L360.855 382.855L340.697 397.215Z" fill="white"/>
<path d="M390.555 399.236C395.903 394.9 397.436 389.718 393.469 384.824C389.502 379.93 384.029 380.254 378.681 384.59L375.605 387.084L367.641 377.261L362.503 381.427L382.34 405.896L390.555 399.236ZM383.398 396.696L379.685 392.117L382.692 389.68C385.313 387.555 387.147 387.458 388.365 388.962C389.641 390.535 389.026 392.134 386.404 394.259L383.398 396.696Z" fill="white"/>
<path d="M413.026 380.514L418.245 376.45L411.859 368.248L412.263 363.713L428.96 368.163L434.712 363.684L412.832 357.852L414.569 339.502L408.648 344.056L407.02 362.035L398.92 351.632L393.7 355.696L413.026 380.514Z" fill="white"/>
<path d="M427.646 349.293C432.195 356.85 441.629 359.523 449.186 354.974C456.742 350.426 458.913 340.768 454.365 333.212C449.677 325.423 440.034 322.666 432.477 327.215C424.921 331.763 422.959 341.505 427.646 349.293ZM435.842 332.805C440.276 330.136 445.881 331.857 448.736 336.6C451.451 341.111 450.255 346.715 445.821 349.384C441.387 352.052 435.99 350.416 433.275 345.905C430.421 341.163 431.408 335.474 435.842 332.805Z" fill="white"/>
<path d="M457.661 331.064C459.993 337.877 466.99 340.952 474.422 339.597L475.719 343.387L481.594 341.376L480.298 337.587C487.058 334.132 490.662 327.429 488.316 320.574C485.97 313.719 479.001 310.587 471.541 311.999L470.23 308.167L464.354 310.177L465.68 314.052C458.977 317.535 455.33 324.252 457.661 331.064ZM463.437 329.04C462.315 325.762 464.607 322.314 467.836 320.353L472.251 333.254C468.498 333.682 464.559 332.319 463.437 329.04ZM473.726 318.385C477.267 318.029 481.021 319.408 482.143 322.687C483.25 325.922 481.128 329.312 478.127 331.243L473.726 318.385Z" fill="white"/>
<path d="M492.174 304.133L495.559 335.45L518.466 332.975L517.764 326.488L501.435 328.252L500.791 322.302L514.884 320.779L514.178 314.247L500.085 315.77L499.452 309.909L515.782 308.144L515.081 301.657L492.174 304.133Z" fill="white"/>
<path d="M534.602 322.827L533.459 329.069L553.201 332.684L554.344 326.443L534.602 322.827ZM536.54 312.248L535.397 318.49L555.138 322.105L556.282 315.864L536.54 312.248Z" fill="white"/>
<path d="M580.557 314.018L564.068 340.858L575.533 347.901C579.942 350.61 584.858 349.141 587.826 344.31C590.794 339.479 589.876 334.268 585.505 331.582L579.716 328.025L582.778 323.041L594.319 330.131L597.773 324.595L580.557 314.018ZM573.12 338.761L576.277 333.623L581.414 336.78C582.871 337.675 583.288 339.146 582.322 340.718C581.333 342.328 579.715 342.813 578.258 341.918L573.12 338.761Z" fill="white"/>
<path d="M591.591 360.744C596.069 365.974 601.291 367.369 606.076 363.272C610.862 359.175 610.392 353.713 605.915 348.482L603.34 345.474L612.946 337.251L608.644 332.226L584.714 352.711L591.591 360.744ZM606.692 378.384L630.621 357.899L626.349 352.908L602.419 373.393L606.692 378.384ZM593.939 353.522L598.417 349.688L600.934 352.628C603.129 355.192 603.274 357.022 601.804 358.281C600.266 359.598 598.65 359.026 596.455 356.462L593.939 353.522Z" fill="white"/>
<path d="M635.748 366.691L629.947 369.678L634.108 377.759L611.903 389.191L614.91 395.032L637.115 383.601L641.276 391.683L647.077 388.696L635.748 366.691Z" fill="white"/>
<path d="M623.21 414.761C625.537 421.241 629.922 424.4 635.851 422.272C641.781 420.143 643.283 414.871 640.957 408.391L639.619 404.663L651.52 400.391L649.285 394.165L619.638 404.808L623.21 414.761ZM627.972 408.844L633.52 406.853L634.827 410.495C635.968 413.672 635.453 415.434 633.632 416.088C631.726 416.772 630.419 415.663 629.279 412.487L627.972 408.844Z" fill="white"/>
<path d="M636.948 437.142L623.814 439.849L625.149 446.328L632.245 444.865L636.178 463.949L629.082 465.411L630.408 471.846L643.542 469.139L642.725 465.173L667.538 460.059L663.669 441.283L644.185 443.277C639.51 443.781 637.82 441.373 637.447 439.566L636.948 437.142ZM639.373 448.91C640.594 449.485 642.246 449.696 644.557 449.541L658.495 448.506L659.821 454.941L641.398 458.738L639.373 448.91Z" fill="white"/>
<path d="M653.267 471.065C644.514 472.147 638.235 479.68 639.317 488.433C640.399 497.186 648.339 503.097 657.093 502.015C666.114 500.9 672.555 493.211 671.472 484.458C670.39 475.705 662.288 469.95 653.267 471.065ZM664.997 485.259C665.632 490.395 661.78 494.815 656.287 495.494C651.061 496.14 646.428 492.768 645.793 487.633C645.158 482.497 648.848 478.232 654.073 477.586C659.566 476.907 664.362 480.123 664.997 485.259Z" fill="white"/>
<path d="M673.4 506.277L641.978 508.486L642.921 521.908C643.284 527.07 647.34 530.213 652.996 529.816C658.652 529.418 662.356 525.639 661.996 520.521L661.52 513.743L667.355 513.333L668.305 526.845L674.817 526.432L673.4 506.277ZM648.951 514.627L654.966 514.204L655.389 520.219C655.509 521.925 654.555 523.12 652.715 523.249C650.829 523.382 649.493 522.348 649.374 520.642L648.951 514.627Z" fill="white"/>
<path d="M643.939 540.974L655.182 540.579L655.342 545.121C655.583 552.002 659.023 556.339 665.769 556.102C672.515 555.865 675.821 551.29 675.579 544.41L675.187 533.257L643.706 534.364L643.939 540.974ZM669.055 544.549C669.173 547.922 667.742 549.458 665.718 549.529C663.244 549.616 661.978 548.175 661.859 544.802L661.703 540.35L668.898 540.097L669.055 544.549Z" fill="white"/>
<path d="M644.656 572.423C644.661 579.308 647.724 583.761 654.024 583.757C660.324 583.753 663.516 579.295 663.511 572.41L663.509 568.45L676.154 568.442L676.149 561.827L644.649 561.848L644.656 572.423ZM644.671 595.643L676.171 595.622L676.167 589.052L644.667 589.073L644.671 595.643ZM651.134 568.459L657.029 568.455L657.031 572.325C657.033 575.7 655.954 577.185 654.019 577.187C651.994 577.188 651.138 575.704 651.136 572.329L651.134 568.459Z" fill="white"/>
<path d="M676.023 601.911L644.529 601.308L644.402 607.922L662.579 608.27L644.233 616.74L644.102 623.579L662.11 632.745L643.934 632.397L643.807 639.011L675.301 639.614L675.435 632.64L651.187 620.294L675.889 608.884L676.023 601.911Z" fill="white"/>
</svg>
