<svg width="314" height="523" viewBox="0 0 314 523" fill="none" xmlns="http://www.w3.org/2000/svg">
<path d="M3.03514 8.2332V25.0332H6.56314V11.7132H14.0751V25.0332H17.6031V8.2092L3.03514 8.2332Z" fill="white"/>
<path d="M22.7685 8.2332V25.0332H26.5605L34.2165 13.5372V25.0332H37.7205V8.2332H33.9285L26.2965 19.7292V8.2332H22.7685Z" fill="white"/>
<path d="M41.8501 8.2332V11.7132H46.6981V25.0332H50.2021V11.7132H55.0501V8.2332H41.8501Z" fill="white"/>
<path d="M64.2323 25.0332C67.9043 25.0332 70.2803 23.4012 70.2803 20.0412C70.2803 16.6812 67.9043 14.9772 64.2323 14.9772H62.1203V8.2332H58.5923V25.0332H64.2323ZM62.1203 21.5772V18.4332H64.1843C65.9843 18.4332 66.7763 19.0092 66.7763 20.0412C66.7763 21.1212 65.9843 21.5772 64.1843 21.5772H62.1203Z" fill="white"/>
<path d="M84.0972 25.0092H87.6252V19.4652L89.2812 17.6892L94.8492 25.0332H98.7372L91.4412 15.4092L98.1852 8.2572L94.2012 8.2332L87.6252 15.2652V8.2332H84.0972V25.0092Z" fill="white"/>
<path d="M102.521 16.7532C102.521 21.4572 106.097 25.2732 110.801 25.2732C115.505 25.2732 119.153 21.4572 119.153 16.7532C119.153 11.9052 115.505 7.9932 110.801 7.9932C106.097 7.9932 102.521 11.9052 102.521 16.7532ZM110.801 11.4732C113.561 11.4732 115.649 13.8012 115.649 16.7532C115.649 19.5612 113.561 21.7932 110.801 21.7932C108.041 21.7932 106.025 19.5612 106.025 16.7532C106.025 13.8012 108.041 11.4732 110.801 11.4732Z" fill="white"/>
<path d="M121.771 16.6572C121.771 20.4972 124.771 23.2572 128.755 23.8572V25.9932H132.067V23.8572C136.075 23.2812 139.051 20.5212 139.051 16.6572C139.051 12.7932 136.075 10.0092 132.067 9.4332V7.2732H128.755V9.4572C124.771 10.0572 121.771 12.8172 121.771 16.6572ZM125.035 16.6332C125.035 14.7852 126.787 13.4412 128.755 13.0092V20.2812C126.787 19.8492 125.035 18.4812 125.035 16.6332ZM132.067 13.0332C133.915 13.4652 135.571 14.8092 135.571 16.6572C135.571 18.4812 133.915 19.8252 132.067 20.2812V13.0332Z" fill="white"/>
<path d="M143.909 8.20546L143.844 25.0053L156.132 25.0533L156.145 21.5733L147.385 21.5391L147.398 18.3471L154.958 18.3766L154.971 14.8727L147.412 14.8432L147.424 11.6992L156.184 11.7334L156.197 8.25339L143.909 8.20546Z" fill="white"/>
<path d="M168.952 20.4586L168.201 23.7581L178.638 26.135L179.389 22.8355L168.952 20.4586ZM170.226 14.8658L169.475 18.1653L179.911 20.5422L180.663 17.2427L170.226 14.8658Z" fill="white"/>
<path d="M197.618 17.6095L189.011 32.0376L195.174 35.7137C197.545 37.1276 200.156 36.3101 201.705 33.713C203.254 31.116 202.729 28.3431 200.379 26.9415L197.267 25.085L198.865 22.4055L205.069 26.1063L206.872 23.1299L197.618 17.6095ZM193.824 30.8562L195.472 28.0943L198.234 29.7418C199.017 30.209 199.249 30.9904 198.745 31.8355C198.229 32.7012 197.369 32.9709 196.586 32.5037L193.824 30.8562Z" fill="white"/>
<path d="M204.838 42.9042C207.186 45.7272 209.96 46.5102 212.543 44.3615C215.126 42.2128 214.917 39.2964 212.569 36.4734L211.218 34.8497L216.403 30.537L214.147 27.8247L201.231 38.5682L204.838 42.9042ZM212.757 52.425L225.673 41.6814L223.432 38.9876L210.517 49.7311L212.757 52.425ZM206.144 39.0704L208.561 37.0598L209.881 38.6466C211.032 40.0305 211.096 41.0077 210.303 41.6677C209.472 42.3583 208.615 42.041 207.464 40.6572L206.144 39.0704Z" fill="white"/>
<path d="M229.672 49.0201L226.342 50.0317L227.751 54.6703L215.006 58.5423L216.025 61.895L228.77 58.023L230.179 62.6617L233.509 61.6501L229.672 49.0201Z" fill="white"/>
<path d="M217.692 74.0125C217.551 77.6817 219.09 80.1189 222.447 80.2485C225.805 80.378 227.599 78.0695 227.741 74.4003L227.822 72.2898L234.561 72.5499L234.697 69.0245L217.91 68.3767L217.692 74.0125ZM221.227 72.0353L224.369 72.1565L224.289 74.219C224.22 76.0177 223.614 76.7869 222.582 76.7471C221.503 76.7054 221.078 75.8964 221.148 74.0978L221.227 72.0353Z" fill="white"/>
<path d="M218.691 91.1841L212.449 87.6918L210.727 90.7706L214.099 92.6574L209.024 101.726L205.652 99.8395L203.941 102.897L210.183 106.39L211.237 104.505L223.029 111.103L228.021 102.18L219.468 96.1844C217.407 94.7561 217.566 93.1948 218.046 92.3361L218.691 91.1841ZM215.562 96.7762C215.853 97.4345 216.446 98.096 217.432 98.8403L223.414 103.288L221.703 106.345L212.948 101.447L215.562 96.7762Z" fill="white"/>
<path d="M211.688 112.815C208.416 109.435 203.192 109.181 199.813 112.452C196.433 115.724 196.466 121.003 199.738 124.383C203.11 127.866 208.452 128.14 211.832 124.868C215.212 121.596 215.06 116.298 211.688 112.815ZM209.411 122.367C207.428 124.287 204.309 124.067 202.256 121.946C200.303 119.928 200.25 116.872 202.233 114.953C204.216 113.033 207.217 113.234 209.17 115.252C211.224 117.373 211.394 120.448 209.411 122.367Z" fill="white"/>
<path d="M199.457 134.22L191.923 119.204L185.509 122.422C183.042 123.66 182.327 126.301 183.683 129.004C185.039 131.707 187.66 132.755 190.105 131.528L193.344 129.903L194.743 132.692L188.287 135.931L189.826 139.053L199.457 134.22ZM190.331 123.897L191.773 126.771L188.898 128.213C188.083 128.622 187.299 128.398 186.858 127.519C186.406 126.618 186.641 125.748 187.456 125.339L190.331 123.897Z" fill="white"/>
<path d="M174.895 126.939L176.891 132.597L174.605 133.403C171.142 134.625 169.484 137.067 170.681 140.462C171.878 143.857 174.734 144.81 178.197 143.589L183.81 141.609L178.222 125.765L174.895 126.939ZM177.085 140.291C175.387 140.889 174.377 140.406 174.017 139.387C173.578 138.143 174.11 137.268 175.807 136.669L178.048 135.879L179.325 139.5L177.085 140.291Z" fill="white"/>
<path d="M158.097 132.327C154.552 133.284 152.683 135.479 153.559 138.723C154.435 141.967 157.173 142.993 160.718 142.035L162.757 141.485L164.515 147.996L167.921 147.076L163.542 130.857L158.097 132.327ZM146.141 135.556L150.521 151.775L153.904 150.861L149.524 134.642L146.141 135.556ZM161.037 135.113L161.856 138.148L159.864 138.686C158.126 139.156 157.211 138.806 156.942 137.81C156.66 136.767 157.306 136.12 159.044 135.651L161.037 135.113Z" fill="white"/>
<path d="M145.398 153.018L141.49 136.679L138.058 137.5L140.314 146.93L133.483 138.594L129.935 139.443L127.616 149.967L125.36 140.537L121.929 141.358L125.837 157.697L129.455 156.831L132.58 142.66L141.78 153.884L145.398 153.018Z" fill="white"/>
<path d="M110.621 149.957L109.761 146.684L99.4084 149.405L100.269 152.677L110.621 149.957ZM112.079 155.504L111.219 152.231L100.866 154.952L101.727 158.225L112.079 155.504Z" fill="white"/>
<path d="M91.1274 166.763L85.6317 150.888L82.2978 152.042L86.6551 164.629L79.5564 167.086L75.1991 154.499L71.8652 155.653L77.3688 171.551L91.1274 166.763Z" fill="white"/>
<path d="M70.2159 165.004C68.2015 160.753 63.3359 158.836 59.085 160.85C54.8341 162.865 53.1717 167.875 55.186 172.126C57.2621 176.507 62.2339 178.48 66.4848 176.466C70.7357 174.451 72.2919 169.385 70.2159 165.004ZM64.9946 173.321C62.5004 174.503 59.6166 173.293 58.3525 170.626C57.15 168.088 58.0811 165.177 60.5752 163.995C63.0694 162.813 65.847 163.967 67.0494 166.504C68.3136 169.172 67.4887 172.139 64.9946 173.321Z" fill="white"/>
<path d="M57.0688 180.269L46.7468 167.014L43.9632 169.182L49.9205 176.832L40.2518 172.072L37.3736 174.314L39.6194 184.854L33.6622 177.204L30.8786 179.371L41.2006 192.626L44.1357 190.341L41.113 176.147L54.1337 182.555L57.0688 180.269Z" fill="white"/>
<path d="M33.3739 188.532C29.3602 186.079 24.2393 187.14 21.7862 191.154C19.3331 195.167 20.6868 200.27 24.7005 202.723C28.8371 205.251 34.0774 204.179 36.5305 200.165C38.9836 196.151 37.5105 191.06 33.3739 188.532ZM33.5612 198.35C32.1219 200.705 29.0466 201.273 26.5278 199.733C24.1319 198.269 23.3162 195.323 24.7556 192.968C26.1949 190.613 29.1507 190.057 31.5466 191.521C34.0654 193.061 35.0005 195.995 33.5612 198.35Z" fill="white"/>
<path d="M31.9853 207.943L15.5704 204.366L14.8194 207.813L27.8341 210.649L26.3984 217.238L29.7987 217.979L31.9853 207.943Z" fill="white"/>
<path d="M12.6401 223.758L16.2347 225.01L16.4486 231.582L12.943 233.065L13.0601 236.663L29.6396 229.616L29.5257 226.114L12.523 220.16L12.6401 223.758ZM24.8092 228.021L19.8823 230.102L19.7574 226.264L24.8092 228.021Z" fill="white"/>
<path d="M29.8327 237.026L26.4281 237.746L27.4314 242.489L14.3997 245.246L15.1249 248.674L28.1565 245.917L29.1598 250.66L32.5645 249.94L29.8327 237.026Z" fill="white"/>
<path d="M19.8722 263.514C21.4202 266.844 23.9017 268.31 26.9486 266.894C29.9954 265.477 30.5389 262.604 28.9909 259.274L28.1006 257.359L34.216 254.516L32.7287 251.317L17.4945 258.399L19.8722 263.514ZM22.1157 260.142L24.9667 258.816L25.8368 260.688C26.5956 262.32 26.4072 263.281 25.4714 263.716C24.4921 264.171 23.7447 263.646 22.9858 262.013L22.1157 260.142Z" fill="white"/>
<path d="M35.3486 277.758L33.156 280.336L41.3094 287.271L43.5019 284.693L35.3486 277.758ZM39.0651 273.389L36.8725 275.967L45.0258 282.902L47.2184 280.324L39.0651 273.389Z" fill="white"/>
<path d="M58.2543 281.162L53.1719 297.175L56.5346 298.242L60.5642 285.546L67.7242 287.819L63.6946 300.515L67.0573 301.582L72.147 285.546L58.2543 281.162Z" fill="white"/>
<path d="M75.9141 286.533L74.1846 303.243L77.9564 303.634L86.7552 292.987L85.5717 304.422L89.0571 304.783L90.7866 288.072L87.0148 287.682L78.2398 298.331L79.4233 286.896L75.9141 286.533Z" fill="white"/>
<path d="M92.7482 288.214L92.8168 291.693L97.6639 291.597L97.9266 304.915L101.43 304.846L101.167 291.528L106.014 291.433L105.946 287.953L92.7482 288.214Z" fill="white"/>
<path d="M116.827 303.906C120.478 303.516 122.667 301.641 122.31 298.3C121.953 294.959 119.41 293.517 115.759 293.907L113.659 294.131L112.942 287.425L109.434 287.8L111.219 304.505L116.827 303.906ZM114.36 300.694L114.026 297.568L116.078 297.348C117.868 297.157 118.717 297.646 118.826 298.672C118.941 299.746 118.202 300.284 116.412 300.475L114.36 300.694Z" fill="white"/>
<path d="M137.025 301.119L140.478 300.396L139.342 294.97L140.599 292.892L147.554 298.94L151.359 298.143L142.246 290.218L147.382 281.836L143.478 282.629L138.482 290.859L137.041 283.976L133.588 284.699L137.025 301.119Z" fill="white"/>
<path d="M152.891 289.333C154.112 293.876 158.556 296.633 163.099 295.412C167.642 294.19 170.174 289.558 168.953 285.015C167.694 280.334 163.156 277.503 158.613 278.724C154.07 279.945 151.632 284.652 152.891 289.333ZM159.516 282.085C162.182 281.368 164.803 283.074 165.569 285.925C166.298 288.637 164.861 291.334 162.196 292.051C159.53 292.767 157.004 291.135 156.275 288.424C155.509 285.573 156.851 282.801 159.516 282.085Z" fill="white"/>
<path d="M172.31 283.746C173.398 287.429 177.057 289.225 181.048 288.672L181.653 290.72L184.83 289.781L184.224 287.733C187.905 286.045 189.976 282.554 188.881 278.849C187.786 275.143 184.143 273.317 180.136 273.9L179.524 271.829L176.348 272.768L176.967 274.862C173.316 276.566 171.222 280.063 172.31 283.746ZM175.433 282.798C174.909 281.026 176.209 279.24 177.974 278.268L180.035 285.242C178.025 285.386 175.957 284.57 175.433 282.798ZM181.157 277.353C183.051 277.243 185.02 278.063 185.544 279.835C186.061 281.584 184.854 283.343 183.211 284.304L181.157 277.353Z" fill="white"/>
<path d="M192.091 269.449L194.467 286.08L206.632 284.342L206.14 280.897L197.468 282.136L197.016 278.976L204.5 277.906L204.005 274.438L196.521 275.507L196.076 272.395L204.748 271.155L204.255 267.71L192.091 269.449Z" fill="white"/>
<path d="M219.127 278.155L218.708 281.513L229.329 282.838L229.748 279.481L219.127 278.155ZM219.837 272.463L219.418 275.821L230.039 277.147L230.458 273.789L219.837 272.463Z" fill="white"/>
<path d="M247.333 272.768L239.87 287.82L246.299 291.008C248.772 292.234 251.312 291.216 252.655 288.507C253.999 285.798 253.26 283.074 250.809 281.859L247.562 280.249L248.948 277.453L255.42 280.663L256.987 277.556L247.333 272.768ZM244.577 286.269L246.005 283.388L248.886 284.817C249.704 285.222 249.996 285.983 249.559 286.864C249.111 287.768 248.275 288.103 247.458 287.698L244.577 286.269Z" fill="white"/>
<path d="M256.893 297.632C259.597 300.116 262.451 300.522 264.724 298.048C266.998 295.574 266.401 292.712 263.698 290.227L262.143 288.798L266.706 283.832L264.108 281.445L252.741 293.815L256.893 297.632ZM266.012 306.011L277.379 293.641L274.799 291.27L263.432 303.64L266.012 306.011ZM257.677 293.658L259.804 291.343L261.324 292.739C262.649 293.957 262.843 294.917 262.144 295.677C261.414 296.472 260.522 296.272 259.197 295.054L257.677 293.658Z" fill="white"/>
<path d="M281.456 298.559L278.548 300.47L281.209 304.522L270.076 311.834L271.999 314.763L283.133 307.451L285.794 311.503L288.703 309.592L281.456 298.559Z" fill="white"/>
<path d="M278.288 326.287C279.755 329.653 282.2 331.18 285.281 329.838C288.361 328.495 288.974 325.636 287.507 322.27L286.663 320.334L292.846 317.64L291.437 314.406L276.035 321.117L278.288 326.287ZM280.613 322.97L283.495 321.715L284.32 323.607C285.039 325.257 284.827 326.213 283.881 326.625C282.891 327.057 282.156 326.513 281.437 324.863L280.613 322.97Z" fill="white"/>
<path d="M287.654 341.576L280.629 342.915L281.289 346.381L285.085 345.657L287.03 355.866L283.234 356.589L283.89 360.031L290.915 358.692L290.511 356.571L303.784 354.042L301.871 343.998L291.465 344.906C288.968 345.137 288.085 343.84 287.901 342.873L287.654 341.576ZM288.854 347.871C289.5 348.188 290.379 348.313 291.613 348.249L299.054 347.809L299.71 351.251L289.855 353.129L288.854 347.871Z" fill="white"/>
<path d="M296.422 361.949C291.723 362.172 288.081 365.925 288.304 370.624C288.527 375.323 292.511 378.786 297.21 378.563C302.052 378.333 305.787 374.504 305.564 369.805C305.341 365.106 301.264 361.72 296.422 361.949ZM302.088 369.97C302.219 372.727 299.992 374.923 297.044 375.063C294.239 375.196 291.911 373.216 291.78 370.459C291.649 367.702 293.783 365.583 296.588 365.449C299.536 365.31 301.957 367.213 302.088 369.97Z" fill="white"/>
<path d="M305.553 383.223H288.753V390.399C288.753 393.159 290.793 394.983 293.817 394.983C296.841 394.983 298.953 393.111 298.953 390.375V386.751H302.073V393.975L305.553 393.999V383.223ZM292.233 386.751H295.449V389.967C295.449 390.879 294.897 391.479 293.913 391.479C292.905 391.479 292.233 390.879 292.233 389.967V386.751Z" fill="white"/>
<path d="M288.753 402.93H294.753V405.354C294.753 409.026 296.505 411.402 300.105 411.402C303.705 411.402 305.553 409.026 305.553 405.354V399.402H288.753V402.93ZM302.073 405.306C302.073 407.106 301.281 407.898 300.201 407.898C298.881 407.898 298.233 407.106 298.233 405.306V402.93H302.073V405.306Z" fill="white"/>
<path d="M288.753 420.982C288.753 424.654 290.385 427.03 293.745 427.03C297.105 427.03 298.809 424.654 298.809 420.982V418.87H305.553V415.342H288.753V420.982ZM288.753 433.366H305.553V429.862H288.753V433.366ZM292.209 418.87H295.353V420.934C295.353 422.734 294.777 423.526 293.745 423.526C292.665 423.526 292.209 422.734 292.209 420.934V418.87Z" fill="white"/>
<path d="M305.553 438.48H288.753V442.008H298.449L288.753 446.712V450.36L298.449 455.064H288.753V458.592H305.553V454.872L292.497 448.536L305.553 442.2V438.48Z" fill="white"/>
</svg>
